<?xml version="1.0" encoding="utf-8"?>
<!-- Generator: Adobe Illustrator 19.2.0, SVG Export Plug-In . SVG Version: 6.00 Build 0)  -->
<svg version="1.1" id="Capa_1" xmlns="http://www.w3.org/2000/svg" xmlns:xlink="http://www.w3.org/1999/xlink" x="0px" y="0px"
	 viewBox="0 0 512 512" style="enable-background:new 0 0 512 512;" xml:space="preserve">
<style type="text/css">
	.st0{fill:#4267B2;}
</style>
<g>
	<g>
		<g>
			<path class="st0" d="M508.3,194.6l-149.3-128c-3.1-2.7-7.6-3.3-11.4-1.6c-3.8,1.7-6.2,5.5-6.2,9.7v74.8
				c-119.2,3.3-176.7,62.3-204,112c-23.8,43.2-29.1,86-30.3,103.6c-0.2,2.7-0.3,5.4-0.3,8.2v0c0,0,0,0,0,0v0c0,0,0,0,0,0v0v0
				c0,0,0,0,0,0v0c0,0,0,0,0,0c0,0,0,0,0,0v0c0,0,0,0,0,0c0,0,0,0,0,0v0v0v0c0,0,0,0,0,0l0,0c0,0,0,0,0,0c0,0,0,0,0,0c0,0,0,0,0,0v0
				v0v0v0c0,0,0,0,0,0c0,0,0,0,0,0c0,0,0,0,0,0v0c0,0,0,0,0,0v0c0,0,0,0,0,0c0,0,0,0,0,0v0c0,0,0,0,0,0v0c0,0,0,0,0,0v0c0,0,0,0,0,0
				v0v0v0l0,0v0c0,0,0,0,0,0c0,0,0,0,0,0v0v0c0,0,0,0,0,0c0,0,0,0,0,0v0c0,0,0,0,0,0v0c0,0,0,0,0,0c0,0,0,0,0,0v0v0v0c0,0,0,0,0,0
				c0,0,0,0,0,0c0.7,5.3,5.2,9.3,10.6,9.3c5.9,0,10.7-4.8,10.7-10.6v0c0-0.5,0-1.9,0.1-3.9c4.7-88.7,168.5-108.8,213.2-112.7v73.9
				c0,4.2,2.4,7.9,6.2,9.7c3.8,1.7,8.2,1.1,11.4-1.6l149.3-128c2.4-2,3.7-5,3.7-8.1C512,199.5,510.6,196.6,508.3,194.6z"/>
			<path class="st0" d="M441.8,304c-3.8-1.8-8.2-1.1-11.4,1.6l-21.3,18.3c-2.4,2-3.7,5-3.7,8.1v73.3H42.7V192h119.2
				c2.6,0,5.1-0.9,7-2.6c8.5-7.4,17.6-14.2,27.2-20.4c4-2.5,5.8-7.4,4.5-12c-1.3-4.6-5.5-7.7-10.2-7.7H42.7
				C19.1,149.3,0,168.5,0,192v213.3C0,428.9,19.1,448,42.7,448h362.7c23.5,0,42.7-19.1,42.7-42.7v-91.6
				C448,309.5,445.6,305.8,441.8,304z"/>
		</g>
	</g>
</g>
</svg>
